<?xml version="1.0" encoding="utf-8" standalone="yes"?>
<!DOCTYPE svg PUBLIC "-//W3C//DTD SVG 1.1//EN" "http://www.w3.org/Graphics/SVG/1.1/DTD/svg11.dtd">
<svg version="1.1" xmlns="http://www.w3.org/2000/svg" xmlns:xlink="http://www.w3.org/1999/xlink" width="546" height="540" viewBox="0 0 546 540" style="fill:none; stroke:none; fill-rule:evenodd; clip-rule:evenodd; stroke-linecap:round; stroke-linejoin:round; stroke-miterlimit:1.5;">
<style class="text-font-style fontImports" data-font-family="Roboto">
@import url(https://fonts.googleapis.com/css2?family=Roboto:wght@400;700&amp;display=block);
</style>
<style class="text-font-style">
@import url(https://app.napkin.ai/fonts/font-face.web.napkin-fallback.css);
@import url(https://app.napkin.ai/fonts/font-face.web.shantell-sans.css);
@import url(https://app.napkin.ai/fonts/font-face.web.roboto.css);
</style>
<g id="items" style="isolation:isolate;">
<g id="blend" style="mix-blend-mode:normal;">
<g id="g-root-tf_qssjn77aploq-fill" data-item-order="-442260">
<g id="tf_qssjn77aploq-fill-merged" stroke="none" fill="#ffffff" fill-opacity="1.0">
<g>
<path d="M0 0 H546 V540 H0 V0"></path>
</g>
</g>
</g>
<g id="g-root-cp_0_g-0_1ly0yur7afuh4-fill" data-item-order="-221101" transform="translate(20.0, 296.0)"></g>
<g id="g-root-sy_0_Vector_1lynfxv7afrwl-fill" data-item-order="-221097" transform="translate(442.0, 296.0)"></g>
<g id="g-root-cp_1_g-1_8zwc37afsat-fill" data-item-order="-221094" transform="translate(33.00001525878906, 230.0000457763672)">
<g id="cp_1_g-1_8zwc37afsat-fill-merged" stroke="none" fill="url(#gradient-b6b6b6-242349474)" fill-opacity="1.0">
<g>
<path d="M10 16.857C10 13.07 12.686 10 16 10 H100C103.314 10 106 13.07 106 16.857 V51.143C106 54.93 103.314 58 100 58 H16C12.686 58 10 54.93 10 51.143 V16.857"></path>
</g>
</g>
</g>
<g id="g-root-cp_1_g-1_1_qvwx2r7afsi3-fill" data-item-order="-221089" transform="translate(77.00001525878906, 278.00006103515625)"></g>
<g id="g-root-cp_2_g-2_1lynfxv7afsp4-fill" data-item-order="-221084" transform="translate(93.0, 314.0)">
<g id="cp_2_g-2_1lynfxv7afsp4-fill-merged" stroke="none" fill="url(#gradient-76aaff-336274919)" fill-opacity="1.0">
<g>
<path d="M10 16.857C10 13.07 12.686 10 16 10 H100C103.314 10 106 13.07 106 16.857 V51.143C106 54.93 103.314 58 100 58 H16C12.686 58 10 54.93 10 51.143 V16.857"></path>
</g>
</g>
</g>
<g id="g-root-cp_2_g-2_1_qvwx2r7aft34-fill" data-item-order="-221079" transform="translate(138.0, 293.0)"></g>
<g id="g-root-cp_3_g-3_4otegj7afu2q-fill" data-item-order="-221074" transform="translate(152.00001525878906, 230.0000457763672)">
<g id="cp_3_g-3_4otegj7afu2q-fill-merged" stroke="none" fill="url(#gradient-64edab-300750244)" fill-opacity="1.0">
<g>
<path d="M10 16.857C10 13.07 12.686 10 16 10 H100C103.314 10 106 13.07 106 16.857 V51.143C106 54.93 103.314 58 100 58 H16C12.686 58 10 54.93 10 51.143 V16.857"></path>
</g>
</g>
</g>
<g id="g-root-cp_3_g-3_1_mg3eyb7afu9u-fill" data-item-order="-221069" transform="translate(197.00001525878906, 278.00006103515625)"></g>
<g id="g-root-cp_4_g-4_mg3eyb7afuhb-fill" data-item-order="-221064" transform="translate(212.0, 314.0)">
<g id="cp_4_g-4_mg3eyb7afuhb-fill-merged" stroke="none" fill="url(#gradient-ffeb37-9997561)" fill-opacity="1.0">
<g>
<path d="M10 16.857C10 13.07 12.686 10 16 10 H100C103.314 10 106 13.07 106 16.857 V51.143C106 54.93 103.314 58 100 58 H16C12.686 58 10 54.93 10 51.143 V16.857"></path>
</g>
</g>
</g>
<g id="g-root-cp_4_g-4_1_18n6xkj7afuob-fill" data-item-order="-221059" transform="translate(257.0, 293.0)"></g>
<g id="g-root-cp_5_g-5_959do37afrws-fill" data-item-order="-221054" transform="translate(273.0, 230.0000457763672)">
<g id="cp_5_g-5_959do37afrws-fill-merged" stroke="none" fill="url(#gradient-fcaa5f-284141256)" fill-opacity="1.0">
<g>
<path d="M10 16.857C10 13.07 12.686 10 16 10 H100C103.314 10 106 13.07 106 16.857 V51.143C106 54.93 103.314 58 100 58 H16C12.686 58 10 54.93 10 51.143 V16.857"></path>
</g>
</g>
</g>
<g id="g-root-cp_5_g-5_1_18ntenn7afs3k-fill" data-item-order="-221049" transform="translate(317.0, 278.00006103515625)"></g>
<g id="g-root-cp_6_g-6_1uuwx9v7afsap-fill" data-item-order="-221044" transform="translate(332.0, 314.0)">
<g id="cp_6_g-6_1uuwx9v7afsap-fill-merged" stroke="none" fill="url(#gradient-fe8884-345532732)" fill-opacity="1.0">
<g>
<path d="M10 16.857C10 13.07 12.686 10 16 10 H100C103.314 10 106 13.07 106 16.857 V51.143C106 54.93 103.314 58 100 58 H16C12.686 58 10 54.93 10 51.143 V16.857"></path>
</g>
</g>
</g>
<g id="g-root-cp_6_g-6_1_959do37afsp1-fill" data-item-order="-221039" transform="translate(377.0, 293.0)"></g>
<g id="g-root-cp_7_g-7_4pfvjn7afsw7-fill" data-item-order="-221034" transform="translate(392.0, 230.0000457763672)">
<defs>
<linearGradient id="gradient-b6b6b6-242349474" x2="0" y2="1">
<stop offset="0" stop-color="#c8c8c8"></stop>
<stop offset="1" stop-color="#a3a3a3"></stop>
</linearGradient>
<linearGradient id="gradient-76aaff-336274919" x2="0" y2="1">
<stop offset="0" stop-color="#9cc2ff"></stop>
<stop offset="1" stop-color="#4f92ff"></stop>
</linearGradient>
<linearGradient id="gradient-64edab-300750244" x2="0" y2="1">
<stop offset="0" stop-color="#83fac1"></stop>
<stop offset="1" stop-color="#44e095"></stop>
</linearGradient>
<linearGradient id="gradient-ffeb37-9997561" x2="0" y2="1">
<stop offset="0" stop-color="#ffef63"></stop>
<stop offset="1" stop-color="#ffe60a"></stop>
</linearGradient>
<linearGradient id="gradient-fcaa5f-284141256" x2="0" y2="1">
<stop offset="0" stop-color="#ffbf84"></stop>
<stop offset="1" stop-color="#f99539"></stop>
</linearGradient>
<linearGradient id="gradient-fe8884-345532732" x2="0" y2="1">
<stop offset="0" stop-color="#ffa6a3"></stop>
<stop offset="1" stop-color="#fd6a65"></stop>
</linearGradient>
<linearGradient id="gradient-fb85cc-419033426" x2="0" y2="1">
<stop offset="0" stop-color="#ffa1da"></stop>
<stop offset="1" stop-color="#f669be"></stop>
</linearGradient>
</defs>
<g id="cp_7_g-7_4pfvjn7afsw7-fill-merged" stroke="none" fill="url(#gradient-fb85cc-419033426)" fill-opacity="1.0">
<g>
<path d="M10 16.857C10 13.07 12.686 10 16 10 H100C103.314 10 106 13.07 106 16.857 V51.143C106 54.93 103.314 58 100 58 H16C12.686 58 10 54.93 10 51.143 V16.857"></path>
</g>
</g>
</g>
<g id="g-root-cp_7_g-7_1_dl2vsj7aft38-fill" data-item-order="-221029" transform="translate(437.0, 278.00006103515625)"></g>
<g id="g-root-tx_alanturi_1lua4c37ah6a0-fill" data-item-order="0" transform="translate(38.0, 140.0)">
<g id="tx_alanturi_1lua4c37ah6a0-fill-merged" stroke="none" fill="#484848" fill-opacity="1.0">
<g>
<text transform="translate(50.0, 34.0)" style="font-size:10.5px; font-family:'Roboto', napkin-fallback, sans-serif; white-space:pre;">
<tspan x="-25.62" y="-12" dominant-baseline="ideographic">Alan Turing </tspan>
<tspan x="-32.68" y="0" dominant-baseline="ideographic">introduces the </tspan>
<tspan x="-33.14" y="12" dominant-baseline="ideographic">Turing Test for </tspan>
<tspan x="-19.35" y="24" dominant-baseline="ideographic">machine </tspan>
<tspan x="-24.65" y="36" dominant-baseline="ideographic">intelligence</tspan>
</text>
</g>
</g>
</g>
<g id="g-root-tx_deepblue_qrjlgz7ah6vd-fill" data-item-order="0" transform="translate(152.0, 110.0)">
<g id="tx_deepblue_qrjlgz7ah6vd-fill-merged" stroke="none" fill="#3cc583" fill-opacity="1.0">
<g>
<text transform="translate(56.0, 21.0)" style="font-weight:bold; font-size:12px; font-family:'Roboto', napkin-fallback, sans-serif; white-space:pre;">
<tspan x="-41.55" y="7" dominant-baseline="ideographic">Deep Blue Wins </tspan>
<tspan x="-14.7" y="21" dominant-baseline="ideographic">Chess</tspan>
</text>
</g>
</g>
</g>
<g id="g-root-tx_ibmsdeep_1cyn4377ah72g-fill" data-item-order="0" transform="translate(158.0, 152.0)">
<g id="tx_ibmsdeep_1cyn4377ah72g-fill-merged" stroke="none" fill="#484848" fill-opacity="1.0">
<g>
<text transform="translate(50.0, 28.0)" style="font-size:10.5px; font-family:'Roboto', napkin-fallback, sans-serif; white-space:pre;">
<tspan x="-36.76" y="-6" dominant-baseline="ideographic">IBM&#39;s Deep Blue </tspan>
<tspan x="-31.11" y="6" dominant-baseline="ideographic">defeats world </tspan>
<tspan x="-37.65" y="18" dominant-baseline="ideographic">chess champion </tspan>
<tspan x="-33.7" y="30" dominant-baseline="ideographic">Garry Kasparov</tspan>
</text>
</g>
</g>
</g>
<g id="g-root-tx_alphagow_v7d3lf7ah7go-fill" data-item-order="0" transform="translate(278.0, 86.0)">
<g id="tx_alphagow_v7d3lf7ah7go-fill-merged" stroke="none" fill="#de8431" fill-opacity="1.0">
<g>
<text transform="translate(50.0, 21.0)" style="font-weight:bold; font-size:12px; font-family:'Roboto', napkin-fallback, sans-serif; white-space:pre;">
<tspan x="-37.34" y="7" dominant-baseline="ideographic">AlphaGo Wins </tspan>
<tspan x="-5.48" y="21" dominant-baseline="ideographic">Go</tspan>
</text>
</g>
</g>
</g>
<g id="g-root-tx_googlede_zn6lpv7ah7nv-fill" data-item-order="0" transform="translate(272.0, 128.0)">
<g id="tx_googlede_zn6lpv7ah7nv-fill-merged" stroke="none" fill="#484848" fill-opacity="1.0">
<g>
<text transform="translate(56.0, 40.0)" style="font-size:10.5px; font-family:'Roboto', napkin-fallback, sans-serif; white-space:pre;">
<tspan x="-15.86" y="-18" dominant-baseline="ideographic">Google </tspan>
<tspan x="-26.39" y="-6" dominant-baseline="ideographic">DeepMind&#39;s </tspan>
<tspan x="-38.13" y="6" dominant-baseline="ideographic">AlphaGo defeats </tspan>
<tspan x="-20.11" y="18" dominant-baseline="ideographic">Go world </tspan>
<tspan x="-32.2" y="30" dominant-baseline="ideographic">champion Lee </tspan>
<tspan x="-11.13" y="42" dominant-baseline="ideographic">Sedol</tspan>
</text>
</g>
</g>
</g>
<g id="g-root-tx_turingte_mb3m9f7ah98k-fill" data-item-order="0" transform="translate(44.0, 98.0)">
<g id="tx_turingte_mb3m9f7ah98k-fill-merged" stroke="none" fill="#969696" fill-opacity="1.0">
<g>
<text transform="translate(44.0, 21.0)" style="font-weight:bold; font-size:12px; font-family:'Roboto', napkin-fallback, sans-serif; white-space:pre;">
<tspan x="-30.07" y="7" dominant-baseline="ideographic">Turing Test </tspan>
<tspan x="-23.82" y="21" dominant-baseline="ideographic">Proposed</tspan>
</text>
</g>
</g>
</g>
<g id="g-root-tx_gpt4andc_18itlyr7ah895-fill" data-item-order="0" transform="translate(392.0, 140.0)">
<g id="tx_gpt4andc_18itlyr7ah895-fill-merged" stroke="none" fill="#484848" fill-opacity="1.0">
<g>
<text transform="translate(56.0, 34.0)" style="font-size:10.5px; font-family:'Roboto', napkin-fallback, sans-serif; white-space:pre;">
<tspan x="-40.61" y="-12" dominant-baseline="ideographic">GPT-4 and Claude </tspan>
<tspan x="-28.99" y="0" dominant-baseline="ideographic">demonstrate </tspan>
<tspan x="-21.88" y="12" dominant-baseline="ideographic">advanced </tspan>
<tspan x="-22.38" y="24" dominant-baseline="ideographic">reasoning </tspan>
<tspan x="-24.66" y="36" dominant-baseline="ideographic">capabilities</tspan>
</text>
</g>
</g>
</g>
<g id="g-root-tx_aitermco_qrjlgz7ah8n4-fill" data-item-order="0" transform="translate(92.0, 392.0)">
<g id="tx_aitermco_qrjlgz7ah8n4-fill-merged" stroke="none" fill="#4e88e7" fill-opacity="1.0">
<g>
<text transform="translate(56.0, 15.0)" style="font-weight:bold; font-size:12px; font-family:'Roboto', napkin-fallback, sans-serif; white-space:pre;">
<tspan x="-39.58" y="14" dominant-baseline="ideographic">AI Term Coined</tspan>
</text>
</g>
</g>
</g>
<g id="g-root-tx_theterma_mbq3cj7ah8uj-fill" data-item-order="0" transform="translate(92.0, 422.0)">
<g id="tx_theterma_mbq3cj7ah8uj-fill-merged" stroke="none" fill="#484848" fill-opacity="1.0">
<g>
<text transform="translate(56.0, 34.0)" style="font-size:10.5px; font-family:'Roboto', napkin-fallback, sans-serif; white-space:pre;">
<tspan x="-42.32" y="-12" dominant-baseline="ideographic">The term &quot;Artificial </tspan>
<tspan x="-33.02" y="0" dominant-baseline="ideographic">Intelligence&quot; is </tspan>
<tspan x="-29.52" y="12" dominant-baseline="ideographic">coined at the </tspan>
<tspan x="-24.31" y="24" dominant-baseline="ideographic">Dartmouth </tspan>
<tspan x="-24.78" y="36" dominant-baseline="ideographic">Conference</tspan>
</text>
</g>
</g>
</g>
<g id="g-root-tx_watsonwi_dg333n7ah98n-fill" data-item-order="0" transform="translate(218.0, 392.0)">
<g id="tx_watsonwi_dg333n7ah98n-fill-merged" stroke="none" fill="#e0cb15" fill-opacity="1.0">
<g>
<text transform="translate(50.0, 21.0)" style="font-weight:bold; font-size:12px; font-family:'Roboto', napkin-fallback, sans-serif; white-space:pre;">
<tspan x="-34.52" y="7" dominant-baseline="ideographic">Watson Wins </tspan>
<tspan x="-24.74" y="21" dominant-baseline="ideographic">Jeopardy!</tspan>
</text>
</g>
</g>
</g>
<g id="g-root-tx_ibmwatso_mcckfn7ah69w-fill" data-item-order="0" transform="translate(212.0, 434.0)">
<g id="tx_ibmwatso_mcckfn7ah69w-fill-merged" stroke="none" fill="#484848" fill-opacity="1.0">
<g>
<text transform="translate(56.0, 22.0)" style="font-size:10.5px; font-family:'Roboto', napkin-fallback, sans-serif; white-space:pre;">
<tspan x="-39.75" y="0" dominant-baseline="ideographic">IBM Watson wins </tspan>
<tspan x="-40.86" y="12" dominant-baseline="ideographic">Jeopardy! against </tspan>
<tspan x="-41.36" y="24" dominant-baseline="ideographic">human champions</tspan>
</text>
</g>
</g>
</g>
<g id="g-root-tx_chatgptl_1luwlf77ah6h6-fill" data-item-order="0" transform="translate(350.0, 392.0)">
<g id="tx_chatgptl_1luwlf77ah6h6-fill-merged" stroke="none" fill="#e55753" fill-opacity="1.0">
<g>
<text transform="translate(38.0, 21.0)" style="font-weight:bold; font-size:12px; font-family:'Roboto', napkin-fallback, sans-serif; white-space:pre;">
<tspan x="-23.52" y="7" dominant-baseline="ideographic">ChatGPT </tspan>
<tspan x="-24.01" y="21" dominant-baseline="ideographic">Launches</tspan>
</text>
</g>
</g>
</g>
<g id="g-root-tx_chatgptb_1qaq3jn7ah6o3-fill" data-item-order="0" transform="translate(338.0, 434.0)">
<g id="tx_chatgptb_1qaq3jn7ah6o3-fill-merged" stroke="none" fill="#484848" fill-opacity="1.0">
<g>
<text transform="translate(50.0, 28.0)" style="font-size:10.5px; font-family:'Roboto', napkin-fallback, sans-serif; white-space:pre;">
<tspan x="-35.95" y="-6" dominant-baseline="ideographic">ChatGPT brings </tspan>
<tspan x="-33.63" y="6" dominant-baseline="ideographic">large language </tspan>
<tspan x="-31.26" y="18" dominant-baseline="ideographic">models to the </tspan>
<tspan x="-26.03" y="30" dominant-baseline="ideographic">mainstream</tspan>
</text>
</g>
</g>
</g>
<g id="g-root-ic_2_1luwlf77ah72b-fill" data-item-order="0" transform="translate(62.0, 236.0)"></g>
<g id="g-root-ic_chem_1lpwsqb7ak0zx-fill" data-item-order="0" transform="translate(122.0, 320.0)"></g>
<g id="g-root-ic_pawn_1464h9v7ak0sl-fill" data-item-order="0" transform="translate(182.0, 236.0)"></g>
<g id="g-root-ic_firs_147zwj77alfym-fill" data-item-order="0" transform="translate(242.0, 320.0)"></g>
<g id="g-root-ic_ai_1unf88j7ao9ab-fill" data-item-order="0" transform="translate(302.0, 236.0)"></g>
<g id="g-root-ic_robo_4j74oj7ao83u-fill" data-item-order="0" transform="translate(362.0, 320.0)"></g>
<g id="g-root-ic_spee_1qbckmr7ao9ac-fill" data-item-order="0" transform="translate(422.0, 236.0)"></g>
<g id="g-root-tx_keymiles_dl2vsj7afua2-fill" data-item-order="0" transform="translate(47.0, 38.0)">
<g id="tx_keymiles_dl2vsj7afua2-fill-merged" stroke="none" fill="#484848" fill-opacity="1.0">
<g>
<text transform="translate(224.0, 10.0)" style="font-weight:bold; font-size:20px; font-family:'Roboto', napkin-fallback, sans-serif; white-space:pre;">
<tspan x="-208.65" y="24" dominant-baseline="ideographic">Key Milestones in Artificial Intelligence History</tspan>
</text>
</g>
</g>
</g>
<g id="g-root-tx_gpt4andc_zn6lpv7ah822-fill" data-item-order="0" transform="translate(392.0, 98.0)">
<g id="tx_gpt4andc_zn6lpv7ah822-fill-merged" stroke="none" fill="#de58a9" fill-opacity="1.0">
<g>
<text transform="translate(56.0, 21.0)" style="font-weight:bold; font-size:12px; font-family:'Roboto', napkin-fallback, sans-serif; white-space:pre;">
<tspan x="-27.59" y="7" dominant-baseline="ideographic">GPT-4 and </tspan>
<tspan x="-38.83" y="21" dominant-baseline="ideographic">Claude Emerge</tspan>
</text>
</g>
</g>
</g>
<g id="g-root-tf_qssjn77aploq-stroke" data-item-order="-442260"></g>
<g id="g-root-cp_0_g-0_1ly0yur7afuh4-stroke" data-item-order="-221101" transform="translate(20.0, 296.0)">
<g id="cp_0_g-0_1ly0yur7afuh4-stroke" fill="none" stroke-linecap="round" stroke-linejoin="round" stroke-miterlimit="4" stroke="#484848" stroke-width="2" stroke-opacity="1.0">
<g>
<path d="M 67 9.999985L 10 9.999985M 128.0307 9.999985L 72.9706 9.999985M 187 9.999985L 134 9.999985M 247 9.999985L 192.9701 9.999985M 307 9.999985L 252.9703 9.999985M 367.0306 9.999985L 312.9701 9.999985M 427.0299 9.999985L 373 9.999985"></path>
</g>
</g>
</g>
<g id="g-root-sy_0_Vector_1lynfxv7afrwl-stroke" data-item-order="-221097" transform="translate(442.0, 296.0)">
<g id="sy_0_Vector_1lynfxv7afrwl-stroke" fill="none" stroke-linecap="round" stroke-linejoin="round" stroke-miterlimit="4" stroke="#484848" stroke-width="2" stroke-opacity="1.0">
<g>
<path d="M 65 9.999985L 10 9.999985"></path>
<path d="M 59 16.499985L 65.5 9.999985L 59 3.499985" stroke-dasharray="none"></path>
</g>
</g>
</g>
<g id="g-root-cp_1_g-1_8zwc37afsat-stroke" data-item-order="-221094" transform="translate(33.00001525878906, 230.0000457763672)">
<g id="cp_1_g-1_8zwc37afsat-stroke" fill="none" stroke-linecap="round" stroke-linejoin="round" stroke-miterlimit="4" stroke="#484848" stroke-width="2" stroke-opacity="1.0">
<g>
<path d="M 10 16.8571C 10 13.07 12.6863 10 16 10L 100 10C 103.3137 10 106 13.07 106 16.8571L 106 51.1429C 106 54.93 103.3137 58 100 58L 16 58C 12.6863 58 10 54.93 10 51.1429L 10 16.8571Z"></path>
</g>
</g>
</g>
<g id="g-root-cp_1_g-1_1_qvwx2r7afsi3-stroke" data-item-order="-221089" transform="translate(77.00001525878906, 278.00006103515625)">
<g id="cp_1_g-1_1_qvwx2r7afsi3-stroke" fill="none" stroke-linecap="round" stroke-linejoin="round" stroke-miterlimit="4" stroke="#484848" stroke-width="2" stroke-opacity="1.0">
<g>
<path d="M 13 10L 13 25M 16 28C 16 29.6569 14.6569 31 13 31C 11.3432 31 10 29.6569 10 28C 10 26.3431 11.3432 25 13 25C 14.6569 25 16 26.3431 16 28Z"></path>
</g>
</g>
</g>
<g id="g-root-cp_2_g-2_1lynfxv7afsp4-stroke" data-item-order="-221084" transform="translate(93.0, 314.0)">
<g id="cp_2_g-2_1lynfxv7afsp4-stroke" fill="none" stroke-linecap="round" stroke-linejoin="round" stroke-miterlimit="4" stroke="#484848" stroke-width="2" stroke-opacity="1.0">
<g>
<path d="M 10 16.857085C 10 13.069985 12.6863 9.999985 16 9.999985L 100 9.999985C 103.3137 9.999985 106 13.069985 106 16.857085L 106 51.142885C 106 54.929985 103.3137 57.999985 100 57.999985L 16 57.999985C 12.6863 57.999985 10 54.929985 10 51.142885L 10 16.857085Z"></path>
</g>
</g>
</g>
<g id="g-root-cp_2_g-2_1_qvwx2r7aft34-stroke" data-item-order="-221079" transform="translate(138.0, 293.0)">
<g id="cp_2_g-2_1_qvwx2r7aft34-stroke" fill="none" stroke-linecap="round" stroke-linejoin="round" stroke-miterlimit="4" stroke="#484848" stroke-width="2" stroke-opacity="1.0">
<g>
<path d="M 13 30.999985L 13 15.999985M 16 12.999985C 16 14.656885 14.6568 15.999985 13 15.999985C 11.3431 15.999985 10 14.656885 10 12.999985C 10 11.343085 11.3431 9.999985 13 9.999985C 14.6568 9.999985 16 11.343085 16 12.999985Z"></path>
</g>
</g>
</g>
<g id="g-root-cp_3_g-3_4otegj7afu2q-stroke" data-item-order="-221074" transform="translate(152.00001525878906, 230.0000457763672)">
<g id="cp_3_g-3_4otegj7afu2q-stroke" fill="none" stroke-linecap="round" stroke-linejoin="round" stroke-miterlimit="4" stroke="#484848" stroke-width="2" stroke-opacity="1.0">
<g>
<path d="M 10 16.8571C 10 13.07 12.6863 10 16 10L 100 10C 103.3137 10 106 13.07 106 16.8571L 106 51.1429C 106 54.93 103.3137 58 100 58L 16 58C 12.6863 58 10 54.93 10 51.1429L 10 16.8571Z"></path>
</g>
</g>
</g>
<g id="g-root-cp_3_g-3_1_mg3eyb7afu9u-stroke" data-item-order="-221069" transform="translate(197.00001525878906, 278.00006103515625)">
<g id="cp_3_g-3_1_mg3eyb7afu9u-stroke" fill="none" stroke-linecap="round" stroke-linejoin="round" stroke-miterlimit="4" stroke="#484848" stroke-width="2" stroke-opacity="1.0">
<g>
<path d="M 13 10L 13 25M 16 28C 16 29.6569 14.6568 31 13 31C 11.3431 31 10 29.6569 10 28C 10 26.3431 11.3431 25 13 25C 14.6568 25 16 26.3431 16 28Z"></path>
</g>
</g>
</g>
<g id="g-root-cp_4_g-4_mg3eyb7afuhb-stroke" data-item-order="-221064" transform="translate(212.0, 314.0)">
<g id="cp_4_g-4_mg3eyb7afuhb-stroke" fill="none" stroke-linecap="round" stroke-linejoin="round" stroke-miterlimit="4" stroke="#484848" stroke-width="2" stroke-opacity="1.0">
<g>
<path d="M 10 16.857085C 10 13.069985 12.6863 9.999985 16 9.999985L 100 9.999985C 103.3137 9.999985 106 13.069985 106 16.857085L 106 51.142885C 106 54.929985 103.3137 57.999985 100 57.999985L 16 57.999985C 12.6863 57.999985 10 54.929985 10 51.142885L 10 16.857085Z"></path>
</g>
</g>
</g>
<g id="g-root-cp_4_g-4_1_18n6xkj7afuob-stroke" data-item-order="-221059" transform="translate(257.0, 293.0)">
<g id="cp_4_g-4_1_18n6xkj7afuob-stroke" fill="none" stroke-linecap="round" stroke-linejoin="round" stroke-miterlimit="4" stroke="#484848" stroke-width="2" stroke-opacity="1.0">
<g>
<path d="M 13 30.999985L 13 15.999985M 16 12.999985C 16 14.656885 14.6568 15.999985 13 15.999985C 11.3431 15.999985 10 14.656885 10 12.999985C 10 11.343085 11.3431 9.999985 13 9.999985C 14.6568 9.999985 16 11.343085 16 12.999985Z"></path>
</g>
</g>
</g>
<g id="g-root-cp_5_g-5_959do37afrws-stroke" data-item-order="-221054" transform="translate(273.0, 230.0000457763672)">
<g id="cp_5_g-5_959do37afrws-stroke" fill="none" stroke-linecap="round" stroke-linejoin="round" stroke-miterlimit="4" stroke="#484848" stroke-width="2" stroke-opacity="1.0">
<g>
<path d="M 10 16.8571C 10 13.07 12.6863 10 16 10L 100 10C 103.3137 10 106 13.07 106 16.8571L 106 51.1429C 106 54.93 103.3137 58 100 58L 16 58C 12.6863 58 10 54.93 10 51.1429L 10 16.8571Z"></path>
</g>
</g>
</g>
<g id="g-root-cp_5_g-5_1_18ntenn7afs3k-stroke" data-item-order="-221049" transform="translate(317.0, 278.00006103515625)">
<g id="cp_5_g-5_1_18ntenn7afs3k-stroke" fill="none" stroke-linecap="round" stroke-linejoin="round" stroke-miterlimit="4" stroke="#484848" stroke-width="2" stroke-opacity="1.0">
<g>
<path d="M 13 10L 13 25M 16 28C 16 29.6569 14.6568 31 13 31C 11.3431 31 10 29.6569 10 28C 10 26.3431 11.3431 25 13 25C 14.6568 25 16 26.3431 16 28Z"></path>
</g>
</g>
</g>
<g id="g-root-cp_6_g-6_1uuwx9v7afsap-stroke" data-item-order="-221044" transform="translate(332.0, 314.0)">
<g id="cp_6_g-6_1uuwx9v7afsap-stroke" fill="none" stroke-linecap="round" stroke-linejoin="round" stroke-miterlimit="4" stroke="#484848" stroke-width="2" stroke-opacity="1.0">
<g>
<path d="M 10 16.857085C 10 13.069985 12.6863 9.999985 16 9.999985L 100 9.999985C 103.3137 9.999985 106 13.069985 106 16.857085L 106 51.142885C 106 54.929985 103.3137 57.999985 100 57.999985L 16 57.999985C 12.6863 57.999985 10 54.929985 10 51.142885L 10 16.857085Z"></path>
</g>
</g>
</g>
<g id="g-root-cp_6_g-6_1_959do37afsp1-stroke" data-item-order="-221039" transform="translate(377.0, 293.0)">
<g id="cp_6_g-6_1_959do37afsp1-stroke" fill="none" stroke-linecap="round" stroke-linejoin="round" stroke-miterlimit="4" stroke="#484848" stroke-width="2" stroke-opacity="1.0">
<g>
<path d="M 13 30.999985L 13 15.999985M 16 12.999985C 16 14.656885 14.6569 15.999985 13 15.999985C 11.3431 15.999985 10 14.656885 10 12.999985C 10 11.343085 11.3431 9.999985 13 9.999985C 14.6569 9.999985 16 11.343085 16 12.999985Z"></path>
</g>
</g>
</g>
<g id="g-root-cp_7_g-7_4pfvjn7afsw7-stroke" data-item-order="-221034" transform="translate(392.0, 230.0000457763672)">
<g id="cp_7_g-7_4pfvjn7afsw7-stroke" fill="none" stroke-linecap="round" stroke-linejoin="round" stroke-miterlimit="4" stroke="#484848" stroke-width="2" stroke-opacity="1.0">
<g>
<path d="M 10 16.8571C 10 13.07 12.6863 10 16 10L 100 10C 103.3137 10 106 13.07 106 16.8571L 106 51.1429C 106 54.93 103.3137 58 100 58L 16 58C 12.6863 58 10 54.93 10 51.1429L 10 16.8571Z"></path>
</g>
</g>
</g>
<g id="g-root-cp_7_g-7_1_dl2vsj7aft38-stroke" data-item-order="-221029" transform="translate(437.0, 278.00006103515625)">
<g id="cp_7_g-7_1_dl2vsj7aft38-stroke" fill="none" stroke-linecap="round" stroke-linejoin="round" stroke-miterlimit="4" stroke="#484848" stroke-width="2" stroke-opacity="1.0">
<g>
<path d="M 13 10L 13 25M 16 28C 16 29.6569 14.6569 31 13 31C 11.3432 31 10 29.6569 10 28C 10 26.3431 11.3432 25 13 25C 14.6569 25 16 26.3431 16 28Z"></path>
</g>
</g>
</g>
<g id="g-root-tx_alanturi_1lua4c37ah6a0-stroke" data-item-order="0" transform="translate(38.0, 140.0)"></g>
<g id="g-root-tx_deepblue_qrjlgz7ah6vd-stroke" data-item-order="0" transform="translate(152.0, 110.0)"></g>
<g id="g-root-tx_ibmsdeep_1cyn4377ah72g-stroke" data-item-order="0" transform="translate(158.0, 152.0)"></g>
<g id="g-root-tx_alphagow_v7d3lf7ah7go-stroke" data-item-order="0" transform="translate(278.0, 86.0)"></g>
<g id="g-root-tx_googlede_zn6lpv7ah7nv-stroke" data-item-order="0" transform="translate(272.0, 128.0)"></g>
<g id="g-root-tx_turingte_mb3m9f7ah98k-stroke" data-item-order="0" transform="translate(44.0, 98.0)"></g>
<g id="g-root-tx_gpt4andc_18itlyr7ah895-stroke" data-item-order="0" transform="translate(392.0, 140.0)"></g>
<g id="g-root-tx_aitermco_qrjlgz7ah8n4-stroke" data-item-order="0" transform="translate(92.0, 392.0)"></g>
<g id="g-root-tx_theterma_mbq3cj7ah8uj-stroke" data-item-order="0" transform="translate(92.0, 422.0)"></g>
<g id="g-root-tx_watsonwi_dg333n7ah98n-stroke" data-item-order="0" transform="translate(218.0, 392.0)"></g>
<g id="g-root-tx_ibmwatso_mcckfn7ah69w-stroke" data-item-order="0" transform="translate(212.0, 434.0)"></g>
<g id="g-root-tx_chatgptl_1luwlf77ah6h6-stroke" data-item-order="0" transform="translate(350.0, 392.0)"></g>
<g id="g-root-tx_chatgptb_1qaq3jn7ah6o3-stroke" data-item-order="0" transform="translate(338.0, 434.0)"></g>
<g id="g-root-ic_2_1luwlf77ah72b-stroke" data-item-order="0" transform="translate(62.0, 236.0)">
<g id="ic_2_1luwlf77ah72b-stroke" fill="none" stroke-linecap="round" stroke-linejoin="round" stroke-miterlimit="4" stroke="#484848" stroke-width="2" stroke-opacity="1.0">
<g>
<path d="M 29.236 27.7645L 34.243 16.75L 39.25 27.7645M 30.346001 25.323999L 38.139999 25.323999M 30.625 36.25L 42.25 36.25C 43.906857 36.25 45.25 34.906857 45.25 33.25L 45.25 13.75C 45.25 12.093145 43.906857 10.75 42.25 10.75L 15.25 10.75C 13.593145 10.75 12.25 12.093145 12.25 13.75L 12.25 27.474998M 27.25 43.75C 27.25 44.578426 26.578428 45.25 25.75 45.25L 12.25 45.25C 11.421573 45.25 10.75 44.578426 10.75 43.75L 10.75 38.5C 10.75 33.943653 14.443651 30.250002 19 30.250002C 23.556349 30.250002 27.25 33.943653 27.25 38.5ZM 10.75 40.75L 27.25 40.75M 15.25 36.625C 15.25 36.832108 15.417893 37 15.625 37C 15.832107 37 16 36.832108 16 36.625C 16 36.417892 15.832107 36.25 15.625 36.25C 15.417893 36.25 15.25 36.417892 15.25 36.625M 22 36.625C 22 36.832108 22.167892 37 22.375 37C 22.582108 37 22.75 36.832108 22.75 36.625C 22.75 36.417892 22.582108 36.25 22.375 36.25C 22.167892 36.25 22 36.417892 22 36.625M 19 30.25L 19 27.25M 16.75 25C 16.75 26.242641 17.75736 27.25 19 27.25C 20.242641 27.25 21.25 26.242641 21.25 25C 21.25 23.75736 20.242641 22.75 19 22.75C 17.75736 22.75 16.75 23.75736 16.75 25"></path>
</g>
</g>
</g>
<g id="g-root-ic_chem_1lpwsqb7ak0zx-stroke" data-item-order="0" transform="translate(122.0, 320.0)">
<g id="ic_chem_1lpwsqb7ak0zx-stroke" fill="none" stroke-linecap="round" stroke-linejoin="round" stroke-miterlimit="4" stroke="#484848" stroke-width="2" stroke-opacity="1.0">
<g>
<path d="M 42.25 29.5L 42.25 13C 42.25 12.171573 41.578426 11.5 40.75 11.5L 15.25 11.5C 14.421573 11.5 13.75 12.171573 13.75 13L 13.75 29.5M 42.25 35.5L 13.75 35.5C 12.452278 35.499046 11.302294 34.663792 10.9 33.43C 10.839602 33.205997 10.888058 32.966629 11.030821 32.783752C 11.173584 32.600872 11.394034 32.495773 11.626 32.5L 44.374001 32.5C 44.606487 32.494812 44.82782 32.599506 44.971283 32.782524C 45.114746 32.965546 45.163559 33.205479 45.103001 33.43C 44.700363 34.664841 43.548828 35.500343 42.25 35.5ZM 13.75 35.5L 13.75 44.5M 42.25 35.5L 42.25 44.5M 13.75 41.5L 42.25 41.5M 18.664 18.042999L 20.914 16.917999C 21.125467 16.812033 21.374533 16.812033 21.586 16.917999L 23.836 18.042999C 24.089756 18.170156 24.24999 18.429668 24.25 18.713501L 24.25 21.502001C 24.250006 21.783426 24.092464 22.04117 23.841999 22.1695L 21.592001 23.324501C 21.377274 23.434521 21.122726 23.434521 20.907999 23.324501L 18.657999 22.1695C 18.407536 22.04117 18.249994 21.783426 18.25 21.502001L 18.25 18.713501C 18.25001 18.429668 18.410244 18.170156 18.664 18.042999ZM 29.164 24.043001L 31.414 22.918001C 31.625469 22.812035 31.874531 22.812035 32.085999 22.918001L 34.336002 24.043001C 34.589756 24.170158 34.749992 24.429668 34.75 24.713501L 34.75 27.502001C 34.750008 27.783426 34.592464 28.04117 34.342003 28.1695L 32.091999 29.324501C 31.877274 29.434521 31.622726 29.434521 31.408001 29.324501L 29.158001 28.1695C 28.907536 28.04117 28.749994 27.783426 28.75 27.502001L 28.75 24.713501C 28.75001 24.429668 28.910244 24.170158 29.164 24.043001ZM 28.8685 24.309999L 24.134501 21.901001M 21.25 23.407L 21.25 28M 31.75 22.841499L 31.75 19M 33.25 14.5L 39.25 14.5M 33.25 17.5L 39.25 17.5"></path>
</g>
</g>
</g>
<g id="g-root-ic_pawn_1464h9v7ak0sl-stroke" data-item-order="0" transform="translate(182.0, 236.0)">
<g id="ic_pawn_1464h9v7ak0sl-stroke" fill="none" stroke-linecap="round" stroke-linejoin="round" stroke-miterlimit="4" stroke="#484848" stroke-width="2" stroke-opacity="1.0">
<g>
<path d="M 12.385 30.25L 24.115 30.25C 24.115 30.25 25.75 30.25 25.75 31.885L 25.75 43.614998C 25.75 43.614998 25.75 45.25 24.115 45.25L 12.385 45.25C 12.385 45.25 10.75 45.25 10.75 43.614998L 10.75 31.885C 10.75 31.885 10.75 30.25 12.385 30.25M 18.25 37.375C 18.457108 37.375 18.625 37.542892 18.625 37.75M 17.875 37.75C 17.875 37.542892 18.042892 37.375 18.25 37.375M 18.25 38.125C 18.042892 38.125 17.875 37.957108 17.875 37.75M 18.625 37.75C 18.625 37.957108 18.457108 38.125 18.25 38.125M 14.5 34C 14.707107 34 14.875 34.167892 14.875 34.375M 14.125 34.375C 14.125 34.167892 14.292893 34 14.5 34M 14.5 34.75C 14.292893 34.75 14.125 34.582108 14.125 34.375M 14.875 34.375C 14.875 34.582108 14.707107 34.75 14.5 34.75M 21.625 34C 21.832108 34 22 34.167892 22 34.375M 21.25 34.375C 21.25 34.167892 21.417892 34 21.625 34M 21.625 34.75C 21.417892 34.75 21.25 34.582108 21.25 34.375M 22 34.375C 22 34.582108 21.832108 34.75 21.625 34.75M 14.5 41.125C 14.707107 41.125 14.875 41.292892 14.875 41.5M 14.125 41.5C 14.125 41.292892 14.292893 41.125 14.5 41.125M 14.5 41.875C 14.292893 41.875 14.125 41.707108 14.125 41.5M 14.875 41.5C 14.875 41.707108 14.707107 41.875 14.5 41.875M 21.625 41.125C 21.832108 41.125 22 41.292892 22 41.5M 21.25 41.5C 21.25 41.292892 21.417892 41.125 21.625 41.125M 21.625 41.875C 21.417892 41.875 21.25 41.707108 21.25 41.5M 22 41.5C 22 41.707108 21.832108 41.875 21.625 41.875M 33.715 10.75C 36.910152 10.740013 39.694218 12.92498 40.443932 16.030947C 41.193649 19.136913 39.712883 22.351322 36.864998 23.799999C 36.454876 24.030502 36.228474 24.489267 36.294998 24.954998L 36.670002 26.59C 40.360001 42.564999 45.25 38.305 45.25 43L 45.25 45.25L 28.75 45.25M 33.715 10.75C 30.519846 10.740013 27.735781 12.92498 26.986065 16.030947C 26.236347 19.136913 27.717115 22.351322 30.564999 23.799999C 30.975124 24.030502 31.201527 24.489267 31.135 24.954998L 30.76 26.59C 30.308563 28.593983 29.732443 30.567822 29.035 32.5"></path>
</g>
</g>
</g>
<g id="g-root-ic_firs_147zwj77alfym-stroke" data-item-order="0" transform="translate(242.0, 320.0)">
<g id="ic_firs_147zwj77alfym-stroke" fill="none" stroke-linecap="round" stroke-linejoin="round" stroke-miterlimit="4" stroke="#484848" stroke-width="2" stroke-opacity="1.0">
<g>
<path d="M 44.5 35.875L 33.25 35.875L 33.25 28.375C 33.25 27.960787 32.914215 27.625 32.5 27.625L 23.5 27.625C 23.085787 27.625 22.75 27.960787 22.75 28.375L 22.75 35.875L 11.5 35.875C 11.085787 35.875 10.75 36.210785 10.75 36.625L 10.75 44.125C 10.75 44.539215 11.085787 44.875 11.5 44.875L 44.5 44.875C 44.914215 44.875 45.25 44.539215 45.25 44.125L 45.25 36.625C 45.25 36.210785 44.914215 35.875 44.5 35.875ZM 21.25 23.875C 21.277977 23.049541 21.47719 22.238903 21.835001 21.494499C 22.249001 20.6665 23.976999 20.0935 26.147501 19.289499C 26.734001 19.072001 26.6395 17.702499 26.3785 17.4175C 25.542473 16.509815 25.133238 15.288659 25.253502 14.0605C 25.18145 13.033583 25.688459 12.052294 26.567722 11.516898C 27.446983 10.981503 28.551517 10.981503 29.430779 11.516898C 30.310041 12.052294 30.817051 13.033583 30.744999 14.0605C 30.865263 15.288659 30.456028 16.509815 29.620001 17.4175C 29.3605 17.704 29.2645 19.067501 29.851 19.289499C 32.0215 20.0935 33.750999 20.6665 34.163498 21.494499C 34.522076 22.238701 34.721813 23.049397 34.75 23.875M 18.568001 31.375C 17.923 31.111 17.165501 30.841 16.349499 30.538C 15.763 30.320499 15.8575 28.951 16.1185 28.666C 16.954529 27.758314 17.363762 26.537159 17.2435 25.309C 17.315422 24.544291 17.056402 23.785393 16.531946 23.224234C 16.00749 22.663074 15.26782 22.35339 14.5 22.373499C 13.731664 22.352516 12.991175 22.661818 12.466045 23.223083C 11.940916 23.784349 11.681504 24.543755 11.7535 25.308998C 11.633238 26.537159 12.042472 27.758314 12.8785 28.666C 13.138 28.952499 13.234 30.316 12.6475 30.538C 11.9605 30.7915 11.32 31.024 10.75 31.247499M 37.427498 31.375C 38.072502 31.111 38.829998 30.841 39.646 30.538C 40.232502 30.320499 40.138 28.951 39.876999 28.666C 39.040974 27.758314 38.631737 26.537159 38.752003 25.309C 38.679951 24.282084 39.186958 23.300795 40.066223 22.765398C 40.945484 22.230003 42.050018 22.230003 42.929279 22.765398C 43.80854 23.300795 44.315552 24.282084 44.2435 25.309C 44.363762 26.537159 43.954529 27.758314 43.1185 28.666C 42.859001 28.952499 42.763 30.316 43.349499 30.538C 44.036499 30.7915 44.677002 31.024 45.248501 31.247499"></path>
</g>
</g>
</g>
<g id="g-root-ic_ai_1unf88j7ao9ab-stroke" data-item-order="0" transform="translate(302.0, 236.0)">
<g id="ic_ai_1unf88j7ao9ab-stroke" fill="none" stroke-linecap="round" stroke-linejoin="round" stroke-miterlimit="4" stroke="#484848" stroke-width="2" stroke-opacity="1.0">
<g>
<path d="M 12.25 17.5L 43.75 17.5C 43.75 17.5 45.25 17.5 45.25 19L 45.25 37C 45.25 37 45.25 38.5 43.75 38.5L 12.25 38.5C 12.25 38.5 10.75 38.5 10.75 37L 10.75 19C 10.75 19 10.75 17.5 12.25 17.5M 22.75 32.5L 22.75 25.75C 22.75 24.50736 23.75736 23.5 25 23.5C 26.242641 23.5 27.25 24.50736 27.25 25.75L 27.25 32.5M 22.75 28L 27.25 28M 31.75 23.5L 31.75 32.5M 30.25 32.5L 33.25 32.5M 30.25 23.5L 33.25 23.5"></path>
</g>
</g>
</g>
<g id="g-root-ic_robo_4j74oj7ao83u-stroke" data-item-order="0" transform="translate(362.0, 320.0)">
<g id="ic_robo_4j74oj7ao83u-stroke" fill="none" stroke-linecap="round" stroke-linejoin="round" stroke-miterlimit="4" stroke="#484848" stroke-width="2" stroke-opacity="1.0">
<g>
<path d="M 26.14045 16.59766L 14.74903 16.59766C 13.092175 16.59766 11.74903 17.940805 11.74903 19.59766L 11.74903 35.113152C 11.74903 36.769897 13.092175 38.113152 14.74903 38.113152L 18.018475 38.113152L 18.018475 43.112503C 18.018475 44.480198 19.699224 45.13435 20.623825 44.126499L 25.6945 38.599148C 25.9786 38.289398 26.3797 38.113152 26.79985 38.113152L 37.329399 38.113152C 38.986298 38.113152 40.329399 36.769897 40.329399 35.113152L 40.329399 30.948551M 33.872501 16.140999L 41.250999 16.140999C 41.250999 16.140999 44.250999 16.140999 44.250999 19.140999L 44.250999 23.548C 44.250999 23.548 44.250999 26.548 41.250999 26.548L 33.872501 26.548C 33.872501 26.548 30.872499 26.548 30.872499 23.548L 30.872499 19.140999C 30.872499 19.140999 30.872499 16.140999 33.872501 16.140999M 10 10M 37.561001 12.035545L 37.561001 16.140625M 10 10M 35.212898 20.45635L 35.212898 22.24609M 10 10M 39.909252 20.45635L 39.909252 22.24609"></path>
</g>
</g>
</g>
<g id="g-root-ic_spee_1qbckmr7ao9ac-stroke" data-item-order="0" transform="translate(422.0, 236.0)">
<g id="ic_spee_1qbckmr7ao9ac-stroke" fill="none" stroke-linecap="round" stroke-linejoin="round" stroke-miterlimit="4" stroke="#484848" stroke-width="2" stroke-opacity="1.0">
<g>
<path d="M 22.622499 19.75L 22.622499 12.481C 22.622499 11.524995 23.397495 10.75 24.3535 10.75L 43.391499 10.75C 44.347504 10.75 45.122501 11.524995 45.122501 12.481L 45.122501 25.518999C 45.122501 26.475004 44.347504 27.25 43.391499 27.25L 35.170002 27.25L 28.679501 31.75L 28.679501 27.25L 25.8535 27.25M 27.179501 15.25L 40.563999 15.25M 27.179501 19L 40.563999 19M 27.179501 22.75L 35.6035 22.75M 28.556499 43.643501C 28.555674 44.530403 27.836903 45.249172 26.950001 45.25L 12.4855 45.25C 11.598012 45.25 10.878328 44.530987 10.877501 43.643501L 10.8775 39.625C 10.877501 34.74308 14.835079 30.7855 19.717001 30.7855C 24.598923 30.7855 28.556499 34.74308 28.556499 39.625ZM 16.342001 36.25C 16.342001 36.457108 16.509893 36.625 16.717001 36.625C 16.924107 36.625 17.092001 36.457108 17.092001 36.25C 17.092001 36.042892 16.924107 35.875 16.717001 35.875C 16.509893 35.875 16.342001 36.042892 16.342001 36.25M 22.341999 36.240997C 22.341999 36.448105 22.509893 36.615997 22.716999 36.615997C 22.924107 36.615997 23.091999 36.448105 23.091999 36.240997C 23.091999 36.033894 22.924107 35.865997 22.716999 35.865997C 22.509893 35.865997 22.341999 36.033894 22.341999 36.240997M 19.717001 30.7855L 19.717001 27.570999M 17.306499 25.1605C 17.306499 26.491783 18.385717 27.571001 19.717001 27.571001C 21.048283 27.571001 22.127501 26.491783 22.127501 25.1605C 22.127501 23.829218 21.048283 22.75 19.717001 22.75C 18.385717 22.75 17.306499 23.829218 17.306499 25.1605M 10.8775 41.2225L 28.556499 41.2225"></path>
</g>
</g>
</g>
<g id="g-root-tx_keymiles_dl2vsj7afua2-stroke" data-item-order="0" transform="translate(47.0, 38.0)"></g>
<g id="g-root-tx_gpt4andc_zn6lpv7ah822-stroke" data-item-order="0" transform="translate(392.0, 98.0)"></g>
</g>
</g>
<path id="w1q5qaur7ar0ul" d="M65.283 12.757a.35.35 0 0 0 .584.157l5.203-5.141-6.183 3.523.396 1.461zm-2.216-11.7a.35.35 0 0 0-.522.305v3.111l3.276-1.868-2.754-1.548zm3.728 2.105l-4.25 2.421v2.445l6.391-3.644-2.141-1.222zm4.708 3.303a.35.35 0 0 0 0-.609l-1.592-.9-7.365 4.199v1.782a.35.35 0 0 0 .523.305l8.435-4.777z M44.542 2.513c0-.433.355-.783.792-.783s.792.35.792.783-.355.783-.792.783-.792-.35-.792-.783zm59.171 0c0-.433.355-.783.792-.783s.792.35.792.783-.355.783-.792.783-.792-.35-.792-.783zm-85.951 7.636h-1.27v-.487c-.276.201-.864.609-1.881.609-1.202 0-2.274-.794-2.137-2.078.118-1.106 1.153-1.584 1.848-1.727l2.17-.345c0-.539-.29-.956-1.064-1.006s-1.21.305-1.571 1.017l-1.124-.605c1.218-2.631 5.029-1.764 5.029.414v4.207zm-1.27-2.86c.006.396-.062 1.112-.819 1.59-.587.37-1.841.299-1.903-.395-.049-.555.461-.791.906-.898l1.816-.297zm72.662 2.86h-1.27v-.487c-.276.201-.864.609-1.881.609-1.202 0-2.274-.794-2.137-2.078.118-1.106 1.153-1.584 1.848-1.727l2.17-.345c0-.539-.29-.956-1.064-1.006s-1.21.305-1.571 1.017l-1.124-.605c1.218-2.631 5.029-1.764 5.029.414v4.207zm-1.27-2.86c.006.396-.062 1.112-.82 1.59-.587.37-1.841.299-1.903-.395-.049-.555.461-.791.906-.898l1.816-.297zM99.096 10.149H97.85v-8.45h1.246v4.895l2.68-2.559h1.738l-2.633 2.535 2.715 3.578h-1.556l-2.077-2.707-.867.844v1.863zm6.053-6.114h-1.255v6.113h1.255V4.035zm-59.2 0h-1.255v6.113h1.255V4.035zm5.584 6.113V1.697h1.255v2.695c.361-.346 1-.485 1.47-.485 1.452 0 2.477 1.082 2.457 2.448v3.792h-1.27v-3.68c0-.408-.214-1.339-1.315-1.339-.968 0-1.342.756-1.342 1.339v3.681h-1.255zm-4.76-4.894V4.039h.621a.45.45 0 0 0 .45-.45v-.855h1.251v1.305h1.309v1.215h-1.309v3.109c0 .293.105.664.648.664.365 0 .531-.035.736-.07v1.137s-.361.113-.857.113c-1.398 0-1.777-1.051-1.777-1.788V5.254h-1.071zM36.528 4.039h-1.394l2.191 6.106h1.125l1.234-3.918 1.238 3.918h1.129l2.188-6.106h-1.383l-1.359 3.93-1.256-3.93h-1.124l-1.242 3.957-1.348-3.957zM26.212 7.141c-.02 1.566 1.187 3.129 3.223 3.129 1.566 0 2.383-.918 2.734-1.719L31.172 8c-.315.399-.801 1.094-1.738 1.094-1.145 0-1.825-.781-1.891-1.52h4.625c.074-.284.148-.995-.03-1.559-.336-1.064-1.221-2.102-2.839-2.102s-3.088 1.152-3.088 3.227zm1.363-.75h3.348c-.055-.43-.566-1.301-1.623-1.301a1.79 1.79 0 0 0-1.725 1.301zm-8.758.75c.038 1.758 1.277 3.133 3.145 3.133 1.074 0 1.723-.477 1.961-.672v.547h1.242V1.703h-1.258v2.888c-.414-.36-1.062-.68-1.93-.68-1.91 0-3.198 1.473-3.16 3.23zm1.309-.08c0 1.119.723 1.978 1.836 1.978a1.88 1.88 0 0 0 1.94-1.904c0-1.371-1.011-1.99-1.972-1.99s-1.805.798-1.805 1.916zm76.683-.028C96.771 5.275 95.532 3.9 93.664 3.9c-1.074 0-1.723.477-1.961.672v-.547h-1.242v8.22h1.258V9.583c.414.36 1.063.68 1.93.68 1.91 0 3.198-1.473 3.16-3.23zm-1.309.08c0-1.119-.723-1.978-1.836-1.978a1.88 1.88 0 0 0-1.94 1.904c0 1.371 1.011 1.99 1.972 1.99S95.5 8.231 95.5 7.113zM106.441 10.173V4.036h1.254v.382c.361-.346 1-.485 1.47-.485 1.452 0 2.477 1.082 2.457 2.448v3.792h-1.27V6.492c0-.408-.214-1.339-1.315-1.339-.969 0-1.342.756-1.342 1.339v3.681h-1.254zm-30.383-.021V1.824h1.084l4.215 5.777V1.824h1.32v8.328h-1.094l-4.207-5.796v5.796h-1.319zM5.24 10.149H4V2.377h1.014l2.664 3.597 2.654-3.592h1.03v7.766h-1.256V4.762L7.678 8.068 5.24 4.742v5.407z" transform="translate(410.0, 506.0)" fill="#80808088" stroke="none"></path>
</svg>